#!OML:ASF F:\VICON\USERDATA\INSTALL\rory3\rory3.ASF
:FULLY-SPECIFIED
:DEGREES
46
root -2.60815 16.5349 42.8008 -164.985 -6.47057 -175.215
lowerback -12.3403 1.07982 3.95456
upperback -5.6034 0.24132 1.97166
thorax 1.07276 -0.223152 -0.150998
lowerneck -15.3366 -1.76879 -7.49505
upperneck 35.5778 -5.32257 4.34985
head 15.3347 -3.82447 1.91703
rclavicle -3.35449e-016 -1.98785e-015
rhumerus -37.5049 11.9326 -97.0459
rradius 30.9638
rwrist 12.0188
rhand -21.8194 -47.6164
rfingers 7.12502
rthumb 4.58319 -77.5468
lclavicle -3.35449e-016 -1.98785e-015
lhumerus -37.2441 -12.7579 94.8797
lradius 32.4172
lwrist 6.78617
lhand -31.0342 -29.7002
lfingers 7.12502
lthumb -4.31613 0.235792
rfemur -32.6453 8.10519 26.2034
rtibia 41.7198
rfoot -20.294 -18.2175
rtoes -2.64167
lfemur -32.4057 -10.2355 -14.6972
ltibia 43.2396
lfoot -25.2497 19.2227
ltoes 6.44328
47
root -2.61722 16.5327 42.7957 -165.069 -6.29816 -175.269
lowerback -12.3102 1.09574 3.98771
upperback -5.56227 0.266585 1.94199
thorax 1.10046 -0.207538 -0.197316
lowerneck -15.2916 -1.76584 -7.52235
upperneck 35.5676 -5.30036 4.3013
head 15.3165 -3.82811 1.90534
rclavicle 4.3422e-015 1.78906e-015
rhumerus -37.4937 12.0013 -97.0407
rradius 30.9163
rwrist 12.0185
rhand -21.699 -47.9151
rfingers 7.12502
rthumb 4.69947 -77.843
lclavicle 4.3422e-015 1.78906e-015
lhumerus -37.2663 -12.603 94.8445
lradius 32.4305
lwrist 6.78883
lhand -31.3174 -29.7765
lfingers 7.12502
lthumb -4.58963 0.153756
rfemur -32.5365 7.97533 26.1243
rtibia 41.7301
rfoot -20.4436 -17.9322
rtoes -2.53695
lfemur -32.254 -10.3032 -14.824
ltibia 43.24
lfoot -25.572 19.3318
ltoes 6.76833
48
root -2.62117 16.5332 42.7973 -165.077 -6.40159 -175.345
lowerback -12.2941 1.02309 3.93709
upperback -5.53179 0.182956 1.93529
thorax 1.12072 -0.244825 -0.18693
lowerneck -15.2813 -1.76038 -7.52505
upperneck 35.5447 -5.27717 4.27422
head 15.3002 -3.82101 1.89884
rclavicle 7.39541e-015 1.45113e-014
rhumerus -37.4191 12.0273 -97.005
rradius 30.89
rwrist 11.9697
rhand -21.4529 -48.1944
rfingers 7.12502
rthumb 4.93702 -78.1169
lclavicle 7.39541e-015 1.45113e-014
lhumerus -37.2003 -12.5834 94.8383
lradius 32.3982
lwrist 6.88109
lhand -32.1385 -29.3995
lfingers 7.12502
lthumb -5.38244 0.512109
rfemur -32.5316 7.88079 26.0449
rtibia 41.7443
rfoot -20.6626 -17.7958
rtoes -1.62814
lfemur -32.2565 -10.3326 -14.898
ltibia 43.2248
lfoot -25.5569 19.3569
ltoes 6.33948
49
root -2.62987 16.5327 42.7867 -165.229 -6.25333 -175.29
lowerback -12.3395 1.03643 4.04859
upperback -5.38175 0.196251 1.95688
thorax 1.30239 -0.227907 -0.225517
lowerneck -15.3903 -1.71393 -7.54579
upperneck 35.5553 -5.17203 4.26143
head 15.3224 -3.77542 1.91524
rclavicle -5.65604e-015 -2.38542e-014
rhumerus -37.3173 12.1493 -96.9745
rradius 30.9107
rwrist 11.9948
rhand -21.4271 -48.2527
rfingers 7.12502
rthumb 4.96201 -78.1746
lclavicle -5.65604e-015 -2.38542e-014
lhumerus -37.0626 -12.4543 94.7928
lradius 32.3852
lwrist 6.93491
lhand -32.5536 -29.0674
lfingers 7.12502
lthumb -5.78322 0.833665
rfemur -32.3306 7.86659 26.083
rtibia 41.7487
rfoot -20.6627 -17.6736
rtoes -1.63382
lfemur -31.9931 -10.3703 -14.9241
ltibia 43.2056
lfoot -25.9614 19.3594
ltoes 7.38696
50
root -2.63386 16.5308 42.7806 -165.346 -6.34502 -175.265
lowerback -12.2183 0.997689 4.16363
upperback -5.33776 0.149644 1.92638
thorax 1.28137 -0.247928 -0.328227
lowerneck -15.4962 -1.68692 -7.54039
upperneck 35.6221 -5.1402 4.28789
head 15.3776 -3.75791 1.92966
rclavicle 1.24862e-014 -1.8487e-014
rhumerus -37.2949 12.0782 -96.9785
rradius 30.9191
rwrist 12.1657
rhand -21.646 -48.0982
rfingers 7.12502
rthumb 4.75057 -78.0249
lclavicle 1.24862e-014 -1.8487e-014
lhumerus -37.0282 -12.3855 94.6905
lradius 32.3859
lwrist 6.9668
lhand -32.3476 -29.0383
lfingers 7.12502
lthumb -5.58437 0.868071
rfemur -32.1684 7.88291 26.1245
rtibia 41.7376
rfoot -20.7132 -17.773
rtoes -1.7355
lfemur -31.8483 -10.2589 -14.939
ltibia 43.1856
lfoot -25.9265 19.2212
ltoes 7.15954
51
root -2.63492 16.5298 42.7731 -165.512 -6.71278 -175.344
lowerback -12.5377 0.863864 3.98412
upperback -5.00031 0.000790137 1.96741
thorax 1.80086 -0.2901 -0.205306
lowerneck -15.6135 -1.77666 -7.54708
upperneck 35.4153 -5.17732 4.28413
head 15.3094 -3.74403 1.92601
rclavicle 7.05064e-016 -9.93923e-015
rhumerus -36.8592 11.9463 -96.7205
rradius 30.8843
rwrist 12.3297
rhand -21.3799 -48.4241
rfingers 7.12502
rthumb 5.00753 -78.345
lclavicle 7.05064e-016 -9.93923e-015
lhumerus -36.565 -12.4624 94.6777
lradius 32.3108
lwrist 7.06691
lhand -32.0495 -28.9919
lfingers 7.12502
lthumb -5.29648 0.921887
rfemur -31.8771 7.93588 26.0938
rtibia 41.7092
rfoot -21.052 -18.0273
rtoes -1.09585
lfemur -31.7027 -10.159 -15.0215
ltibia 43.2144
lfoot -25.9679 18.7595
ltoes 7.09773
52
root -2.64445 16.5266 42.7463 -166.058 -6.79322 -175.351
lowerback -12.604 0.855017 4.01282
upperback -4.63216 0.0199821 1.92324
thorax 2.22119 -0.248831 -0.265003
lowerneck -15.6355 -1.81552 -7.43496
upperneck 35.2513 -5.22056 4.30913
head 15.2366 -3.72416 1.91217
rclavicle -2.91965e-015 -3.77691e-015
rhumerus -36.321 11.2056 -96.2614
rradius 32.5908
rwrist 7.46768
rhand -15.3876 -55.2491
rfingers 7.12502
rthumb 10.7909 -84.9519
lclavicle -2.91965e-015 -3.77691e-015
lhumerus -36.4043 -12.6121 94.6769
lradius 32.361
lwrist 7.17357
lhand -32.2413 -28.6838
lfingers 7.12502
lthumb -5.48172 1.22525
rfemur -31.0645 8.00029 26.1442
rtibia 41.6508
rfoot -21.3482 -18.0941
rtoes -0.745169
lfemur -30.9823 -10.2701 -15.1567
ltibia 43.2669
lfoot -26.1174 18.8128
ltoes 6.58782
53
root -2.65874 16.5253 42.7629 -165.684 -6.10712 -175.076
lowerback -12.7017 1.19395 4.42895
upperback -4.73064 0.392079 1.89324
thorax 2.18655 -0.0798035 -0.476156
lowerneck -15.7744 -1.79928 -7.39144
upperneck 35.2628 -5.19236 4.34088
head 15.2721 -3.69389 1.92242
rclavicle -4.6528e-015 2.22639e-014
rhumerus -36.2872 11.2779 -96.2756
rradius 31.8127
rwrist 9.15053
rhand -18.2483 -51.5006
rfingers 7.12502
rthumb 8.03069 -81.328
lclavicle -4.6528e-015 2.22639e-014
lhumerus -36.3544 -12.5071 94.6125
lradius 32.4515
lwrist 7.13845
lhand -32.3083 -28.2876
lfingers 7.12502
lthumb -5.5464 1.6198
rfemur -31.6302 7.73093 26.2537
rtibia 41.6119
rfoot -21.2771 -17.0714
rtoes -0.454609
lfemur -31.4648 -10.0755 -14.9632
ltibia 43.3964
lfoot -26.307 19.1909
ltoes 7.29685
54
root -2.67114 16.5228 42.7488 -165.815 -5.56717 -174.865
lowerback -12.8675 1.3602 4.6792
upperback -4.52404 0.572639 1.95183
thorax 2.50121 0.0220377 -0.526984
lowerneck -15.9272 -1.80615 -7.51009
upperneck 35.2576 -5.14829 4.38548
head 15.3075 -3.67587 1.96936
rclavicle 8.58035e-016 1.98785e-014
rhumerus -36.0579 11.4344 -96.1724
rradius 32.5287
rwrist 7.41049
rhand -16.441 -54.7903
rfingers 7.12502
rthumb 9.77466 -84.5434
lclavicle 8.58035e-016 1.98785e-014
lhumerus -36.1816 -12.0948 94.4493
lradius 32.4417
lwrist 7.01139
lhand -31.7087 -28.2
lfingers 7.12502
lthumb -4.96747 1.72175
rfemur -31.456 7.80493 26.3837
rtibia 41.5838
rfoot -21.2316 -16.6511
rtoes -0.299465
lfemur -31.2558 -9.99997 -14.9022
ltibia 43.5406
lfoot -26.5202 19.5985
ltoes 7.87476
55
root -2.67882 16.5198 42.763 -165.547 -5.28851 -174.749
lowerback -12.4588 1.48001 4.87231
upperback -4.89275 0.710407 1.9337
thorax 1.90303 0.0551716 -0.639786
lowerneck -15.7421 -1.77832 -7.62375
upperneck 35.3637 -5.18832 4.48644
head 15.325 -3.7193 2.02354
rclavicle 1.46138e-015 -1.39149e-015
rhumerus -36.4568 11.4009 -96.2468
rradius 32.5336
rwrist 7.51578
rhand -16.542 -54.6262
rfingers 7.12502
rthumb 9.67722 -84.3839
lclavicle 1.46138e-015 -1.39149e-015
lhumerus -36.5744 -11.7247 94.3314
lradius 32.4349
lwrist 6.94665
lhand -31.073 -28.7673
lfingers 7.12502
lthumb -4.35366 1.16798
rfemur -31.877 7.71818 26.3989
rtibia 41.6209
rfoot -20.9539 -16.3707
rtoes -0.897537
lfemur -31.6472 -9.80185 -14.8203
ltibia 43.6781
lfoot -26.5232 19.7382
ltoes 7.91644
56
root -2.69172 16.5161 42.7748 -165.093 -4.75112 -174.62
lowerback -12.3132 1.75311 5.0757
upperback -5.2546 1.02404 1.88526
thorax 1.46513 0.172426 -0.76422
lowerneck -15.6159 -1.786 -7.71544
upperneck 35.4903 -5.26489 4.54423
head 15.3679 -3.77785 2.04882
rclavicle 1.60643e-014 1.51076e-014
rhumerus -36.7874 11.3364 -96.2861
rradius 31.6757
rwrist 9.33677
rhand -18.747 -51.1064
rfingers 7.12502
rthumb 7.54935 -80.9517
lclavicle 1.60643e-014 1.51076e-014
lhumerus -36.8844 -11.5702 94.3207
lradius 32.4909
lwrist 6.9869
lhand -30.678 -29.2591
lfingers 7.12502
lthumb -3.97224 0.683588
rfemur -32.5376 7.50524 26.3749
rtibia 41.6654
rfoot -20.8731 -15.6721
rtoes -1.03212
lfemur -32.1826 -9.46283 -14.7787
ltibia 43.7975
lfoot -26.6169 19.91
ltoes 8.14479
57
root -2.67784 16.5175 42.7764 -165.18 -5.91506 -174.971
lowerback -11.8813 1.26746 4.50247
upperback -5.46043 0.478268 1.96195
thorax 0.984643 -0.102629 -0.440024
lowerneck -15.5792 -1.78299 -7.78569
upperneck 35.636 -5.28149 4.51361
head 15.4327 -3.81579 2.04302
rclavicle 1.06909e-014 9.93923e-016
rhumerus -37.0133 11.266 -96.2081
rradius 31.525
rwrist 9.42728
rhand -18.8405 -50.9706
rfingers 7.12502
rthumb 7.45913 -80.8191
lclavicle 1.06909e-014 9.93923e-016
lhumerus -37.142 -11.3401 94.3556
lradius 32.58
lwrist 7.02394
lhand -30.3527 -29.245
lfingers 7.12502
lthumb -3.65808 0.703353
rfemur -32.3931 7.5942 26.1686
rtibia 41.7462
rfoot -21.0231 -16.8471
rtoes -0.500393
lfemur -32.3736 -9.26476 -14.9776
ltibia 43.8795
lfoot -26.3219 18.9383
ltoes 7.20601
58
root -2.69284 16.5129 42.7722 -165.139 -5.2292 -174.809
lowerback -11.7134 1.51273 4.64724
upperback -5.57553 0.780507 2.01675
thorax 0.786775 0.0316581 -0.427847
lowerneck -15.4813 -1.75001 -7.88195
upperneck 35.6576 -5.22151 4.49794
head 15.4172 -3.81483 2.06408
rclavicle 1.83006e-014 1.5704e-014
rhumerus -37.2529 11.2611 -96.0837
rradius 30.5937
rwrist 11.6037
rhand -21.4407 -47.8638
rfingers 7.12502
rthumb 4.94883 -77.786
lclavicle 1.83006e-014 1.5704e-014
lhumerus -37.3026 -10.9532 94.3638
lradius 32.5547
lwrist 7.02435
lhand -30.1001 -29.4033
lfingers 7.12502
lthumb -3.41411 0.549111
rfemur -32.4959 7.5777 26.202
rtibia 41.7786
rfoot -20.997 -16.1901
rtoes -0.854421
lfemur -32.3464 -9.1144 -14.9881
ltibia 43.978
lfoot -26.4762 19.4911
ltoes 7.33029
